<?xml version="1.0" encoding="UTF-8"?>
<!DOCTYPE svg PUBLIC "-//W3C//DTD SVG 1.1//EN" "http://www.w3.org/Graphics/SVG/1.1/DTD/svg11.dtd">
<!-- Creator: CorelDRAW -->
<svg xmlns="http://www.w3.org/2000/svg" xml:space="preserve" width="13.6364mm" height="49.7231mm" style="shape-rendering:geometricPrecision; text-rendering:geometricPrecision; image-rendering:optimizeQuality; fill-rule:evenodd; clip-rule:evenodd"
viewBox="0 0 1.26024 4.59528"
 xmlns:xlink="http://www.w3.org/1999/xlink">
 <defs>
  <style type="text/css">
   <![CDATA[
    .fil0 {fill:#DEDEDD}
   ]]>
  </style>
 </defs>
 <g id="Layer_x0020_1">
  <metadata id="CorelCorpID_0Corel-Layer"/>
  <path class="fil0" d="M0.407275 0.207477l0 0.0384179 0 0.0537962 0 0.0768359 0.00767989 0.0230582 0.00768913 0.0230489 0.00767989 0.0153783 0.00768913 0.0153598 0.00768913 0.0461071 0.00767989 0.015369 0.00767989 0.00768913 0.00768913 0.00768913 0.00767989 0.00767065 0 0.0768544 -0.00767989 0.0768451 -0.00768913 0.053787 -0.00767989 0.015369 -0.00767989 0.00767989 -0.0153783 0.00768913 -0.00767989 0.00768913 -0.015369 0.00767989 -0.00767989 0.00767989 -0.0153783 0.00768913 -0.0153598 0.00767989 -0.015369 0.00768913 -0.0153783 0.00768913 -0.0230489 0.00767989 -0.015369 0.00767989 -0.030738 0.00768913 -0.0230582 0.00767989 -0.0307288 0.00768913 -0.0230489 0.00768913 -0.0230582 0.00767065 -0.0153783 0.00768913 -0.0153598 0.00768913 -0.015369 0.00767989 -0.00768913 0.00768913 -0.00767989 0.00768913 -0.00767989 0.00767065 -0.00768913 0.00768913 -0.00768913 0.00768913 -0.00767989 0.00767989 -0.00768913 0.015369 -0.00767989 0.015369 -0.00767989 0.0153783 -0.00768913 0.0230489 -0.00768913 0.030738 -0.00767989 0.069156 0 0.0461071 0.00767989 0.0768451 0.00768913 0.0461071 0.00768913 0.0384179 0.00767989 0.030738 0.00767989 0.0307473 0 0.069156 -0.00767989 0.192108 -0.00767989 0.0845343 -0.00768913 0.0307288 -0.00768913 0.030738 -0.00767989 0.0384272 -0.00768913 0.0460978 0 0.207486 0.00768913 0.115263 0 0.0768451 0 0.0461071 0 0.00768913 -0.00768913 0.0307288 -0.00767989 0.0384272 -0.00767989 0.0384272 -0.00768913 0.0460978 0 0.0614761 0.00768913 0.0230582 0.00767989 0.015369 0.00767989 0.015369 0.00768913 0.0153598 0.00767989 0.00768913 0.00768913 0.015369 0.00768913 0.00768913 0.00767989 0.00768913 0.015369 0.00767065 0.015369 0.00768913 0.015369 0.00768913 0.00767989 0.00767989 0.015369 0.00768913 0.0153783 0.00768913 0.00767065 0.00767065 0.0153783 0.00768913 0.015369 0.00768913 0.0230489 0 0 -0.0384272 -0.00768913 -0.0230582 -0.00767065 -0.0153598 0 -0.0230582 0.00767065 -0.0230489 0.00768913 -0.0999033 0 -0.0230489 -0.00768913 -0.0384179 -0.00767065 -0.0230582 -0.00768913 -0.030738 -0.00768913 -0.0230582 -0.00767989 -0.0461071 0 -0.0230489 0.00767989 -0.0691652 0.00768913 -0.0384179 0.00768913 -0.030738 0.00767065 -0.0307288 0.00768913 -0.0307473 0.00768913 -0.030738 0.00767989 -0.0384179 0.00768913 -0.0384179 0.00768913 -0.0537962 0 -0.069156 0 -0.0691652 0.00767065 -0.0384179 0.00768913 -0.030738 0.00768913 -0.030738 0 -0.0384179 0.00792942 0 -0.00792942 0.407265 -0.00768913 0.0537962 -0.00768913 0.0537962 -0.00767065 0.0537777 -0.00768913 0.0461071 -0.00768913 0.0691652 -0.00767989 0.0922141 0 0.30738 0.00767989 0.0768451 0.00768913 0.0614669 0.00768913 0.0461071 0.00767065 0.0461071 0.00768913 0.0461071 0.00768913 0.0461071 0.00767989 0.0461071 0.00768913 0.0384179 0.00767989 0.0461071 0 0.215166 -0.00767989 0.0384272 -0.00768913 0.030738 -0.00767989 0.0384272 -0.00768913 0.053787 0 0.0768451 0.00768913 0.0768451 0.00767989 0.0461071 0.00768913 0.0307288 0.00767989 0.0384272 0.00767989 0.030738 0.00768913 0.0230489 0.00768913 0.030738 0.00767989 0.0307473 0.00768913 0.0230489 0.00767989 0.0307288 0.00767989 0.0230582 0.00768913 0.0230489 0.00768913 0.0307473 0.00767989 0.0230489 0.00768913 0.030738 0.00767989 0.0230582 0.00767989 0.0230489 0.00768913 0.030738 0.00768913 0.030738 0.00767989 0.030738 0.00767989 0.0384179 0 0.0307473 -0.00767989 0.0153598 0 0.0307473 0 0.0153598 -0.00767989 0.015369 -0.00768913 0.00768913 -0.00768913 0.0153598 -0.00767989 0.00768913 -0.00767989 0.00768913 -0.00768913 0.00767989 -0.00767989 0.00768913 -0.00768913 0.00767989 -0.015369 0.00767989 -0.00767989 0.00768913 -0.00768913 0.00768913 -0.015369 0.00767989 -0.00768913 0.00768913 -0.00767989 0.00767989 0 0.0230582 0.00767989 0.00767989 0.00768913 0.00768913 0.015369 0.00767989 0.0230489 0.00767989 0.0384272 0.00768913 0.16905 0 0.0153783 -0.00768913 0.00767989 -0.00767989 0.00768913 -0.00767989 0.00768913 -0.015369 0 -0.0153783 -0.00768913 -0.207477 -0.00768913 -0.069156 -0.00767989 -0.146001 0 -0.107592 0.00767989 -0.107574 0.00768913 -0.0461071 0.00768913 -0.069156 0 -0.14601 -0.00768913 -0.0768359 -0.00768913 -0.0384272 -0.00767989 -0.053787 0 -0.0768451 0.00767989 -0.0384364 0.00768913 -0.0384179 0.00768913 -0.0768451 0 -0.0230489 0 -0.0614761 0.00767065 -0.0614761 0.00768913 -0.053787 0.00768913 -0.0614761 0.00767989 -0.0614761 0.00768913 -0.0768451 0.00767989 -0.099894 0 -0.084525 0.00767989 0 0 0.130632 0.00768913 0.107574 0.00768913 0.0845343 0.00767989 0.0691652 0.00768913 0.0614669 0.00767989 0.0614761 0 0.0230489 0 0.0768451 0.00767989 0.0614761 0.00768913 0.0384272 0.00768913 0.030738 0 0.030738 -0.00768913 0.0922141 -0.00768913 0.0614761 0 0.245904 0.00768913 0.053787 0.00768913 0.084525 0 0.0999033 -0.00768913 0.153681 -0.00768913 0.0845343 -0.00767989 0.207477 0 0.0461071 0.00767989 0.015369 0.0153783 0.00767989 0.015369 0.00768913 0.16137 0 0.0461071 -0.00768913 0.0153598 -0.00767989 0.0230582 -0.00767989 0.00768913 -0.00768913 0 -0.0384179 -0.00768913 -0.00768913 -0.015369 -0.00767989 -0.00768913 -0.00768913 -0.0153598 -0.00768913 -0.00768913 -0.00767989 -0.00767989 -0.00767989 -0.00768913 -0.00768913 -0.00768913 -0.00767989 -0.00767065 -0.00768913 -0.00768913 -0.00768913 -0.00768913 -0.00767065 -0.00767989 -0.00768913 -0.00768913 -0.015369 0 -0.030738 0 -0.015369 -0.00767989 -0.0153783 0 -0.0537777 0.00767989 -0.0384272 0.00768913 -0.030738 0.00767989 -0.0230489 0.00768913 -0.030738 0.00768913 -0.0230582 0.00767065 -0.030738 0.00768913 -0.0230582 0.00768913 -0.0307288 0.00767989 -0.0230489 0.00768913 -0.0230582 0.00768913 -0.030738 0.00767065 -0.0230582 0.00768913 -0.030738 0.00768913 -0.0230489 0.00767989 -0.030738 0.00768913 -0.030738 0.00768913 -0.030738 0.00767065 -0.0384179 0.00768913 -0.0461071 0.00768913 -0.0614761 0 -0.115263 -0.00768913 -0.0537962 -0.00768913 -0.0384179 -0.00767065 -0.0461071 -0.00768913 -0.0384272 0 -0.0307473 0.00768913 -0.17673 0.00767065 -0.0384272 0.00768913 -0.0461071 0.00768913 -0.053787 0.00767989 -0.0461071 0.00768913 -0.0384179 0.00767989 -0.0537962 0.00767989 -0.0614761 0.00768913 -0.069156 0.00768913 -0.184428 0 -0.015369 -0.00768913 -0.161379 -0.00768913 -0.0922141 -0.00767989 -0.0614669 -0.00767989 -0.0537962 -0.00768913 -0.0461071 -0.00767989 -0.053787 -0.00768913 -0.0614761 -0.00304053 -0.392515 0.00304053 0.031348 0.00768913 0.030738 0.00767989 0.030738 0.00768913 0.0384272 0.00767989 0.199788 0.00767989 0.0384179 0.00768913 0.0384272 0.00768913 0.030738 0.00767989 0.030738 0.00768913 0.030738 0.00767989 0.030738 0.00767989 0.0384272 0.00768913 0.0461071 0 0.069156 -0.00768913 0.0384179 -0.00767989 0.0230582 -0.00767989 0.030738 -0.00768913 0.0230489 0 0.146001 0.00768913 0.0230489 0.00767989 0.0153783 0 0.00767989 -0.00767989 0.0153783 -0.00768913 0.0153598 -0.00767989 0.0230582 0 0.0153598 0.00767989 0.0153783 0.015369 0 0.015369 -0.00768913 0.015369 -0.00768913 0.015369 -0.00767065 0.00767989 -0.00768913 0.0153783 -0.00768913 0.0153598 -0.00767989 0.00768913 -0.00768913 0.0230582 -0.00768913 0.00767989 -0.00767065 0.00767989 -0.00768913 0.00768913 -0.00768913 0.00767989 -0.00767989 0.00768913 -0.0153783 0.00768913 -0.0153598 0.00767989 -0.00768913 0.00767989 -0.015369 0.00768913 -0.0230489 0.00767989 -0.0230582 0 -0.00767989 -0.00767989 -0.053787 -0.00768913 -0.0461071 -0.00767989 -0.0384272 -0.00767989 -0.030738 0 -0.0384272 0 -0.0307288 -0.00768913 -0.0153783 0 -0.0230489 0.00768913 -0.122943 0 -0.253584 -0.00768913 -0.0537962 -0.00768913 -0.030738 -0.00767989 -0.0384272 -0.00768913 -0.0384179 -0.00767989 -0.0922141 0 -0.253584 0.00767989 -0.030738 0.00768913 -0.030738 0.00767989 -0.0461071 0.00768913 -0.0614761 0 -0.107574 -0.00768913 -0.0461071 -0.00767989 -0.0307473 -0.00768913 -0.0153598 -0.00767989 -0.0230674 -0.00767989 -0.00767989 -0.00768913 -0.015369 -0.00768913 -0.00767989 -0.00767989 -0.00768913 -0.00768913 -0.00768913 -0.00767989 -0.00767065 -0.00767989 -0.00768913 -0.00768913 -0.00768913 -0.015369 -0.00767989 -0.015369 -0.00768913 -0.015369 -0.00768913 -0.0230489 -0.00767065 -0.0230582 -0.00768913 -0.0230489 -0.00768913 -0.0307473 -0.00767989 -0.0230489 -0.00768913 -0.0230582 -0.00767989 -0.0153598 -0.00767989 -0.015369 -0.00768913 -0.0153783 -0.00768913 -0.0153598 -0.00767989 -0.015369 -0.00768913 -0.015369 -0.00767989 -0.00767989 -0.00767989 -0.00768913 -0.00768913 -0.015369 -0.00768913 -0.00768913 -0.00767989 -0.00767989 -0.015369 -0.00767989 -0.0384179 -0.00768913 -0.0461071 -0.00768913 -0.0999033 0 -0.0230582 0.00768913 -0.00767065 0.00768913 -0.00768913 0.00767989 -0.00768913 0.00767989 -0.015369 0.00768913 -0.0461071 0.00767989 -0.00767989 0.00768913 -0.015369 0.00768913 -0.0230582 0.00767989 -0.030738 0 -0.0230489 -0.019075 -0.0625204c0.00021256,-0.0169494 0.00370594,-0.0216534 0.00370594,-0.0450628l0 -0.0384179 -0.00843771 -0.092131c-0.0364217,-0.0555983 -0.0785271,-0.115346 -0.168301,-0.115346l-0.0537962 0c-0.0902734,0 -0.122952,0.063879 -0.176739,0.0998848l-0.015369 0.107592z"/>
 </g>
</svg>
