<?xml version="1.0" encoding="UTF-8"?>
<!DOCTYPE svg PUBLIC "-//W3C//DTD SVG 1.1//EN" "http://www.w3.org/Graphics/SVG/1.1/DTD/svg11.dtd">
<!-- Creator: CorelDRAW -->
<svg xmlns="http://www.w3.org/2000/svg" xml:space="preserve" width="13.6156mm" height="49.723mm" style="shape-rendering:geometricPrecision; text-rendering:geometricPrecision; image-rendering:optimizeQuality; fill-rule:evenodd; clip-rule:evenodd"
viewBox="0 0 1.31141 4.78914"
 xmlns:xlink="http://www.w3.org/1999/xlink">
 <defs>
  <style type="text/css">
   <![CDATA[
    .fil0 {fill:#DEDEDD}
   ]]>
  </style>
 </defs>
 <g id="Layer_x0020_1">
  <metadata id="CorelCorpID_0Corel-Layer"/>
  <path class="fil0" d="M0.556093 0.00830248l-0.0165953 0.00829285 -0.0165953 0.00830248 -0.016605 0.00830248 -0.00829285 0.00830248 -0.00831211 0.00830248 -0.00830248 0.00830248 -0.00829285 0.00829285 -0.00830248 0.00830248 -0.00830248 0.00830248 -0.00829285 0.00829285 -0.00830248 0.016605 -0.00830248 0.0165953 -0.00829285 0.0249074 -0.00830248 0.0248978 0 0.0332003c0.0287023,0.0452398 -0.0141874,0.3109 -0.0249074,0.356901l0.0406359 -0.0586086 -0.0159789 0.110013 0.0420807 -0.0259188 -0.0186469 0.048505 0.065996 -0.0675082 -0.00691552 0.0597836 0.0468387 -0.068558c0.00369855,0.147229 -0.0131472,0.210451 -0.102519,0.26959 -0.049863,0.0329787 -0.0662753,0.0402314 -0.129218,0.061681 -0.0116736,0.00397787 -0.143463,0.0359838 -0.146372,0.0362246l-0.00830248 0 -0.00829285 0.016605 -0.00830248 0.00830248 -0.00830248 0.0165953 -0.00829285 0.0248978 -0.00830248 0.0498052 -0.00830248 0.705508 -0.00829285 0.0332003 -0.00831211 0.0331906 -0.00830248 0.0332099 -0.00829285 0.0248978 -0.00830248 0.0332003 -0.00830248 0.0415028 -0.00829285 0.448199 -0.00830248 0.00830248 -0.00830248 0.0165953 0 0.00831211 0.00830248 0.0165953 0 0.0332003 -0.00830248 0.0331906 -0.00829285 0.0332099 -0.00830248 0.0332003 -0.00830248 0.0414931 -0.00829285 0.0415028 0 0.0332003 0.00829285 0.0248978 0.00830248 0.0249074 0.00830248 0.0248978 0.00829285 0.0165953 0.00830248 0.016605 0.0165953 0.00829285 0.00830248 0.00830248 0.00830248 0.00831211 0.00829285 0.00829285 0.0166146 0 0 0.016605 0.0165953 0.00829285 0.00830248 0.00830248 0.00829285 0.00830248 0.00830248 0.00829285 0.00830248 0.00830248 0.0165953 0 0.00830248 -0.0165953 0 -0.00830248 -0.00830248 -0.0248978 -0.00830248 -0.00830248 -0.00829285 -0.016605 -0.00830248 -0.00830248 0.0165953 -0.00829285 0.00830248 -0.016605 0.00830248 -0.0248978 0.00829285 -0.0165953 0.00830248 -0.0249074 0 -0.0746934 -0.00830248 -0.0664006 -0.00829285 -0.0248978 -0.00830248 -0.0332099 0 -0.116196 0.00830248 -0.0497956 0.00829285 -0.0415124 0.00830248 -0.0414931 0.00831211 -0.0332003 0.00829285 -0.0332003 0.00830248 -0.0415028 0.00830248 -0.0331906 0.00829285 -0.0332099 0.00830248 -0.0332003 0.00830248 -0.0331906 0.00829285 -0.0332099 0.00830248 -0.0332003 0.00830248 -0.0415028 0.00829285 -0.0248978 0.00830248 -0.0414931 0.00831211 -0.0332099 0 -0.340296 0.00829285 0 0 0.0580981 0.00830248 0.0497956 0.00830248 0.0664102 0.00829285 0.0663909 0 0.149406 -0.00829285 0.0248978 -0.00830248 0.0248978 -0.00830248 0.016605 -0.00829285 0.0248978 -0.00831211 0.0248978 -0.00830248 0.016605 -0.00829285 0.0249074 -0.00830248 0.0248978 -0.00830248 0.0165953 -0.00829285 0.0248978 -0.00830248 0.0332099 -0.00830248 0.0248978 -0.00829285 0.0248978 -0.00830248 0.0331906 -0.00830248 0.0415124 -0.00829285 0.0497956 -0.00831211 0.074703 0 0.124499 0.00831211 0.0580981 0.00829285 0.0497956 0.00830248 0.0498052 0.00830248 0.0415028 0.00829285 0.0415028 0.00830248 0.0332003 0.00830248 0.0498052 0.00829285 0.0331906 0.00830248 0.0497956 0.00830248 0.0249074 0.00829285 0.0332003 0.00830248 0.0414931 0.00831211 0.0332099 0.00829285 0.0332003 0.00830248 0.0331906 0.00830248 0.0332099 0.00829285 0.0332003 0.00830248 0.0414931 0 0.107913 -0.00830248 0.0497956 -0.00829285 0.0414931 -0.00830248 0.0581077 -0.00830248 0.0664006 0 0.116206 0.00830248 0.0414931 0.00830248 0.0415028 0.00829285 0.0332003 0.00830248 0.0332003 0.00830248 0.0332003 0.00829285 0.0332003 0.00830248 0.0332003 0.00830248 0.0249074 0.00829285 0.0331906 0.00830248 0.0248978 0.00831211 0.0332099 0.00829285 0.0332003 0.00830248 0.0331906 0.00830248 0.0248978 0.00829285 0.0332099 0.00830248 0.0332003 0.00830248 0.0331906 0.00829285 0.0332099 0.00830248 0.0332003 0.00830248 0.0331906 0.00829285 0.0415124 0.00830248 0.0414931 0.00831211 0.0498052 0 0.074703 -0.00831211 0.00830248 -0.00830248 0.0165953 0 0.00830248 0.00830248 0.00829285 0 0.0248978 -0.00830248 0.016605 -0.00829285 0.016605 -0.00830248 0.00830248 -0.00830248 0.0165953 -0.00829285 0.00830248 -0.00830248 0.00829285 -0.0165953 0.00830248 -0.00830248 0.00830248 -0.00830248 0.00829285 -0.016605 0.00830248 -0.00830248 0.00830248 -0.00829285 0.00829285 -0.00830248 0.0166146 0 0.0165953 0.00830248 0.00830248 0.00829285 0.00829285 0.0166146 0.00830248 0.0165953 0.00830248 0.0414931 0.00829285 0.157709 0 0.00830248 -0.00829285 0.00829285 -0.00830248 0.00830248 -0.0165953 0 -0.0332003 0 -0.00831211 0.00830248 -0.0912887 0 -0.166001 -0.00830248 -0.199202 0 -0.332003 0 -0.249007 -0.00830248 -0.074703 -0.00829285 -0.0830055 0 -0.124499 0.00829285 -0.0497956 0.00830248 -0.0415028 0.00830248 -0.273895 0 -0.164894 -0.00830248 -0.107903 0 -0.00830248 0.0248978 0 0 0.016605 0 0.530087 0.00830248 0.0498052 0.00829285 0.0414931 0 0.149416 -0.00829285 0.0746934 -0.00830248 0.074703 0 0.224099 0 0.381798 -0.00830248 0.182606 0 0.124499 0.00830248 0.0996008 0 0.0332099 0 0.0165953 0.00830248 0.0248978 0.00829285 0.00830248 0.00830248 0.00829285 0.166001 0 0.0415124 -0.00829285 0.0165953 -0.00830248 0.0165953 -0.00830248 0.00830248 -0.00829285 0.00830248 -0.00830248 0 -0.00830248 -0.00830248 -0.0249074 -0.00830248 -0.00829285 -0.0165953 -0.00830248 -0.00830248 -0.00830248 -0.016605 -0.00829285 -0.00830248 -0.00830248 -0.00829285 -0.00830248 -0.00830248 -0.00829285 -0.00830248 -0.00830248 -0.00829285 -0.00830248 -0.00830248 -0.00829285 -0.00830248 -0.00830248 -0.00829285 -0.016605 -0.00830248 -0.016605 0 -0.0165953 0.00830248 -0.0165953 0 -0.016605 -0.00830248 -0.00829285 -0.00830248 -0.0166146 0 -0.0580884 0.00830248 -0.0498052 0.00830248 -0.0415028 0.00829285 -0.0414931 0.00830248 -0.0332099 0.00830248 -0.0331906 0.00829285 -0.0415124 0.00830248 -0.0331906 0.00830248 -0.0248978 0.00829285 -0.0332003 0.00830248 -0.0332099 0.00831211 -0.0331906 0.00829285 -0.0248978 0.00830248 -0.0332099 0.00830248 -0.0248978 0.00829285 -0.0332003 0.00830248 -0.0332003 0.00830248 -0.0332003 0.00829285 -0.0248978 0.00830248 -0.0332099 0.00830248 -0.0331906 0.00829285 -0.0332003 0.00830248 -0.0415028 0.00831211 -0.0415028 0 -0.141094 -0.00831211 -0.0581077 -0.00830248 -0.0581077 -0.00829285 -0.0414931 -0.00830248 -0.0498052 0 -0.0912887 0.00830248 -0.0415124 0.00829285 -0.0331906 0.00830248 -0.0415124 0.00831211 -0.0248978 0.00829285 -0.0331906 0.00830248 -0.0415124 0.00830248 -0.0331906 0.00829285 -0.0332003 0.00830248 -0.0332099 0.00830248 -0.0414931 0.00829285 -0.0332003 0.00830248 -0.0415028 0.00830248 -0.0414931 0.00829285 -0.0332099 0.00830248 -0.0414931 0.00831211 -0.0415028 0.00829285 -0.0415028 0.00830248 -0.0414931 0.00830248 -0.0498052 0 -0.124499 -0.00830248 -0.074703 -0.00830248 -0.0415028 -0.00829285 -0.0331906 -0.00831211 -0.0415124 -0.00830248 -0.0248978 -0.00829285 -0.0248978 -0.00830248 -0.0249074 -0.00830248 -0.0248978 -0.00829285 -0.0248978 -0.00830248 -0.0248978 -0.00830248 -0.016605 -0.00829285 -0.0248978 -0.00830248 -0.0165953 -0.00830248 -0.0248978 -0.00829285 -0.016605 -0.00831211 -0.0249074 -0.00830248 -0.0248978 -0.00829285 -0.0248978 0 -0.132791 0.00829285 -0.0664102 0.00830248 -0.0664006 0.00831211 -0.0497956 0 -0.0581077 0.00829285 0 0 0.0664102 0.00830248 0.265593 0.00830248 0.0415028 0.00829285 0.0332003 0.00830248 0.0332099 0.00830248 0.0331906 0.00829285 0.0332003 0.00830248 0.0332099 0.00830248 0.0331906 0.00829285 0.0332003 0.00830248 0.0332099 0.00831211 0.0331906 0.00829285 0.0332003 0.00830248 0.0415028 0.00830248 0.0332003 0.00829285 0.0414931 0.00830248 0.0415124 0.00830248 0.0414931 0 0.124499 -0.00830248 0.0332099 -0.00830248 0.0165953 -0.00829285 0.0664006 0 0.0746934 0.00829285 0.0249074 0.00830248 0.016605 0.00830248 0.0248978 0.00829285 0.0165953 0.00830248 0.00830248 0.00830248 0 -0.00830248 0.00829285 -0.00830248 0.0166146 -0.00829285 0.0165953 0 0.0414931 0.0165953 0 0.00830248 -0.00829285 0.00829285 -0.00830248 0.00830248 -0.00830248 0.00831211 -0.00829285 0.0165953 -0.00830248 0.00830248 -0.00830248 0.00829285 -0.00829285 0.00830248 -0.00831211 0.00830248 -0.00830248 0.0165953 -0.00829285 0.00830248 -0.00830248 0.00829285 -0.00830248 0.00830248 -0.0248978 0.00831211 -0.0248978 0.00829285 -0.0249074 0.00830248 -0.0165953 0 -0.0332003 -0.00830248 -0.0331906 -0.00829285 -0.0415124 -0.00831211 -0.0331906 -0.00830248 -0.0415124 -0.00829285 -0.0331906 0 -0.0332003 0.00829285 -0.0165953 0 -0.00831211 -0.00829285 -0.0165953 -0.00830248 -0.00830248 -0.00830248 -0.431604 -0.00829285 -0.0580981 -0.00830248 -0.0332003 -0.00830248 -0.0248978 -0.00829285 -0.0249074 -0.00830248 -0.0332003 -0.00830248 -0.0414931 -0.00829285 -0.174304 0 -0.132801 0 -0.298802 -0.00831211 -0.124508 -0.00830248 -0.0331906 -0.00829285 -0.0248978 -0.00830248 -0.016605 -0.00830248 -0.00829285 -0.00829285 -0.00831211 -0.00830248 -0.00830248 -0.00830248 -0.00829285 -0.0165953 -0.00830248 -0.0165953 -0.00830248 -0.0664102 -0.00830248 -0.0248978 -0.00829285 -0.0249074 -0.00830248 -0.0165953 -0.00830248 -0.0248978 -0.00829285 -0.0165953 -0.00830248 -0.016605 -0.00830248 -0.00829285 -0.00830248 -0.0166146 -0.00830248 -0.00829285 -0.00830248 -0.016605 -0.00829285 -0.00829285 -0.00830248 -0.00830248 -0.00830248 -0.00830248 -0.00829285 -0.00829285 -0.016605 -0.00830248 -0.00829285 -0.00830248 -0.016605 -0.00829285 -0.0249074 -0.00831211 -0.0248978 -0.0045654 -0.067643 0.0045654 0.0178474 0.00831211 0.00830248 0.00829285 0.00830248 0.00830248 0.00829285 0.0165953 0.00830248 0.0248978 0 0 -0.00830248 -0.00829285 -0.00829285 -0.00830248 -0.00830248 -0.00830248 -0.016605 -0.00829285 -0.0332003 0.00829285 0.00830248 0.00830248 0.00829285 0.00830248 0.00830248 0.00829285 0.00830248 0.00830248 0.00830248 0.0248978 0.00830248 0.0498052 0 0 -0.00830248 -0.0165953 -0.00830248 -0.00830248 -0.00830248 -0.0165953 -0.00830248 -0.00831211 -0.0165953 0.016605 0.00830248 0.016605 0.00829285 0.00829285 0 0 -0.0165953 -0.00829285 -0.00830248 -0.00830248 -0.00829285 -0.00830248 -0.016605 0.00830248 0.00830248 0.00830248 0.00830248 0.0331906 0.00829285 0.0415124 0 0 -0.00829285 -0.0166146 -0.00830248 -0.0248978 -0.00830248 -0.00829285 -0.00829285 -0.00830248 -0.00830248 -0.00830248 -0.00830248 -0.00829285 -0.0249074 -0.00830248 -0.0414931 -0.00830248 -0.215797 -0.00829285 -0.074703 -0.00831211 -0.0332003 -0.00830248 -0.0249074 -0.00829285 -0.0165953 -0.00830248 -0.016605 -0.00830248 -0.0165953 -0.00829285 -0.00830248 -0.00830248 -0.00829285 -0.00830248 -0.00830248 -0.00829285 -0.00830248 -0.016605 -0.00830248 -0.00829285 -0.00830248 -0.0249074 -0.00830248 -0.0248978 -0.00829285 -0.0497956 -0.00830248 -0.0996008 0 -0.0415124 0.00830248zm-0.149396 0.215797l-0.00829285 0.232412 -0.00831211 0.0497956 -0.00830248 0.0248978 -0.00829285 0.016605 -0.00830248 0.0165953 -0.00830248 0.016605 -0.0165953 0.00829285 -0.00830248 0.00830248 0 0.00830248 0.0248978 0 0.016605 -0.00830248 0.0165953 -0.00830248 0.00831211 -0.00829285 0.00829285 -0.00830248 0.00830248 -0.00830248 -0.00830248 0.0248978 -0.00829285 0.00830248 0 0.0165953 -0.0166146 0 -0.00829285 0.00830248 -0.0248978 0.00830248 -0.016605 0.00830248 -0.00829285 0.00830248 0 0.00830248 0.0165953 0 0.0332003 -0.00830248 0.0249074 -0.00830248 0.0165953 -0.00830248 0.00830248 0 -0.00830248 0.00830248 -0.00830248 0.00830248 -0.00829285 0.00830248 -0.0166146 0.00829285 -0.00829285 0.00830248 -0.016605 0.00830248 0 0.0165953 0.00830248 0 0.0165953 -0.00830248 0.0249074 -0.00829285 0.016605 -0.00830248 0.00829285 -0.00830248 0.016605 -0.00829285 0.00829285 -0.00830248 0.00830248 -0.00830248 0.00830248 -0.00830248 0.00829285 -0.00830248 -0.00829285 0.0332099 0 0.0165953 0.0165953 0 0.00831211 -0.0165953 0.00829285 -0.00830248 0.00830248 -0.00830248 0.00830248 -0.00830248 0.00829285 -0.016605 -0.00829285 0.074703 -0.00830248 0.0332003 -0.00830248 0.016605 -0.00829285 0.016605 -0.00831211 0.00829285 -0.00830248 0.016605 -0.00829285 0.00829285 -0.00830248 0.00830248 -0.00830248 0.00830248 -0.0165953 0.00829285 -0.00830248 0.00830248 -0.0165953 0.00830248 -0.00830248 0.00830248 -0.016605 0.00830248 -0.0248978 0.00830248 -0.0165953 0.00829285 -0.0248978 0.00830248 -0.016605 0.00830248 -0.0332003 0.00829285 -0.0580981 0.00830248 -0.0249074 0.00830248 -0.00830248 0.00830248 -0.0165953 0.00829285 0 0.00830248c0.00290876,-0.000240791 0.134699,-0.0322467 0.146372,-0.0362246 0.0629428,-0.0214497 0.0793551,-0.0287023 0.129218,-0.061681 0.089372,-0.0591383 0.106218,-0.12236 0.102519,-0.26959l-0.0468387 0.068558 0.00691552 -0.0597836 -0.065996 0.0675082 0.0186469 -0.048505 -0.0420807 0.0259188 0.0159789 -0.110013 -0.0406359 0.0586086c0.01072,-0.0460007 0.0536097,-0.311661 0.0249074,-0.356901l-0.00830248 0.0165953z"/>
 </g>
</svg>
